<mxfile host="app.diagrams.net" modified="2024-02-07T20:59:39.007Z" agent="Mozilla/5.0 (Windows NT 10.0; Win64; x64; rv:122.0) Gecko/20100101 Firefox/122.0" etag="0WzWMsrhkZQG1woY3QVj" version="23.1.2" type="github">
  <diagram name="Page-1" id="pIcOd9jtVSp7WNd0rXvI">
    <mxGraphModel dx="712" dy="991" grid="1" gridSize="10" guides="1" tooltips="1" connect="1" arrows="1" fold="1" page="1" pageScale="1" pageWidth="850" pageHeight="1100" math="0" shadow="0">
      <root>
        <mxCell id="0" />
        <mxCell id="1" parent="0" />
        <mxCell id="ilTM_Oiv8FxUlfR7bGBe-3" value="&lt;div&gt;Boid&lt;/div&gt;" style="whiteSpace=wrap;html=1;align=center;" vertex="1" parent="1">
          <mxGeometry x="80" y="120" width="100" height="40" as="geometry" />
        </mxCell>
        <mxCell id="ilTM_Oiv8FxUlfR7bGBe-4" value="&lt;div&gt;Corpus&lt;/div&gt;" style="ellipse;whiteSpace=wrap;html=1;align=center;" vertex="1" parent="1">
          <mxGeometry x="80" y="280" width="100" height="40" as="geometry" />
        </mxCell>
        <mxCell id="ilTM_Oiv8FxUlfR7bGBe-5" value="Position" style="ellipse;whiteSpace=wrap;html=1;align=center;dashed=1;" vertex="1" parent="1">
          <mxGeometry x="190" y="420" width="100" height="40" as="geometry" />
        </mxCell>
        <mxCell id="ilTM_Oiv8FxUlfR7bGBe-6" value="Velocity" style="ellipse;whiteSpace=wrap;html=1;align=center;dashed=1;" vertex="1" parent="1">
          <mxGeometry x="190" y="500" width="100" height="40" as="geometry" />
        </mxCell>
        <mxCell id="ilTM_Oiv8FxUlfR7bGBe-7" value="has-a" style="shape=rhombus;perimeter=rhombusPerimeter;whiteSpace=wrap;html=1;align=center;" vertex="1" parent="1">
          <mxGeometry x="70" y="190" width="120" height="60" as="geometry" />
        </mxCell>
        <mxCell id="ilTM_Oiv8FxUlfR7bGBe-8" value="x: numeric&#xa;y: numeric&#xa;z: numeric&#xa;" style="shape=partialRectangle;fillColor=none;align=left;verticalAlign=middle;strokeColor=none;spacingLeft=34;rotatable=0;points=[[0,0.5],[1,0.5]];portConstraint=eastwest;dropTarget=0;" vertex="1" parent="1">
          <mxGeometry x="260" y="440" width="90" height="50" as="geometry" />
        </mxCell>
        <mxCell id="ilTM_Oiv8FxUlfR7bGBe-9" value="" style="shape=partialRectangle;top=0;left=0;bottom=0;fillColor=none;stokeWidth=1;dashed=1;align=left;verticalAlign=middle;spacingLeft=4;spacingRight=4;overflow=hidden;rotatable=0;points=[];portConstraint=eastwest;part=1;" vertex="1" connectable="0" parent="ilTM_Oiv8FxUlfR7bGBe-8">
          <mxGeometry width="30" height="50" as="geometry" />
        </mxCell>
        <mxCell id="ilTM_Oiv8FxUlfR7bGBe-10" value="i: numeric&#xa;j: numeric&#xa;k: numeric&#xa;" style="shape=partialRectangle;fillColor=none;align=left;verticalAlign=middle;strokeColor=none;spacingLeft=34;rotatable=0;points=[[0,0.5],[1,0.5]];portConstraint=eastwest;dropTarget=0;" vertex="1" parent="1">
          <mxGeometry x="260" y="520" width="90" height="50" as="geometry" />
        </mxCell>
        <mxCell id="ilTM_Oiv8FxUlfR7bGBe-11" value="" style="shape=partialRectangle;top=0;left=0;bottom=0;fillColor=none;stokeWidth=1;dashed=1;align=left;verticalAlign=middle;spacingLeft=4;spacingRight=4;overflow=hidden;rotatable=0;points=[];portConstraint=eastwest;part=1;" vertex="1" connectable="0" parent="ilTM_Oiv8FxUlfR7bGBe-10">
          <mxGeometry width="30" height="50" as="geometry" />
        </mxCell>
        <mxCell id="ilTM_Oiv8FxUlfR7bGBe-12" value="" style="endArrow=none;html=1;rounded=0;exitX=0.5;exitY=0;exitDx=0;exitDy=0;" edge="1" parent="1" source="ilTM_Oiv8FxUlfR7bGBe-7">
          <mxGeometry width="50" height="50" relative="1" as="geometry">
            <mxPoint x="80" y="210" as="sourcePoint" />
            <mxPoint x="130" y="160" as="targetPoint" />
          </mxGeometry>
        </mxCell>
        <mxCell id="ilTM_Oiv8FxUlfR7bGBe-13" value="" style="endArrow=none;html=1;rounded=0;entryX=0.5;entryY=1;entryDx=0;entryDy=0;exitX=0.5;exitY=0;exitDx=0;exitDy=0;" edge="1" parent="1" source="ilTM_Oiv8FxUlfR7bGBe-4" target="ilTM_Oiv8FxUlfR7bGBe-7">
          <mxGeometry width="50" height="50" relative="1" as="geometry">
            <mxPoint x="350" y="540" as="sourcePoint" />
            <mxPoint x="290" y="500" as="targetPoint" />
          </mxGeometry>
        </mxCell>
        <mxCell id="ilTM_Oiv8FxUlfR7bGBe-14" value="has-a" style="shape=rhombus;perimeter=rhombusPerimeter;whiteSpace=wrap;html=1;align=center;" vertex="1" parent="1">
          <mxGeometry x="70" y="350" width="120" height="60" as="geometry" />
        </mxCell>
        <mxCell id="ilTM_Oiv8FxUlfR7bGBe-15" value="" style="endArrow=none;html=1;rounded=0;entryX=0.5;entryY=1;entryDx=0;entryDy=0;exitX=0;exitY=0.5;exitDx=0;exitDy=0;" edge="1" parent="1" source="ilTM_Oiv8FxUlfR7bGBe-6" target="ilTM_Oiv8FxUlfR7bGBe-14">
          <mxGeometry width="50" height="50" relative="1" as="geometry">
            <mxPoint x="350" y="540" as="sourcePoint" />
            <mxPoint x="400" y="490" as="targetPoint" />
            <Array as="points">
              <mxPoint x="130" y="520" />
            </Array>
          </mxGeometry>
        </mxCell>
        <mxCell id="ilTM_Oiv8FxUlfR7bGBe-16" value="" style="endArrow=none;html=1;rounded=0;entryX=0;entryY=0.5;entryDx=0;entryDy=0;" edge="1" parent="1" target="ilTM_Oiv8FxUlfR7bGBe-5">
          <mxGeometry width="50" height="50" relative="1" as="geometry">
            <mxPoint x="130" y="440" as="sourcePoint" />
            <mxPoint x="400" y="490" as="targetPoint" />
          </mxGeometry>
        </mxCell>
        <mxCell id="ilTM_Oiv8FxUlfR7bGBe-17" value="" style="endArrow=none;html=1;rounded=0;entryX=0.5;entryY=1;entryDx=0;entryDy=0;exitX=0.5;exitY=0;exitDx=0;exitDy=0;" edge="1" parent="1" source="ilTM_Oiv8FxUlfR7bGBe-14" target="ilTM_Oiv8FxUlfR7bGBe-4">
          <mxGeometry width="50" height="50" relative="1" as="geometry">
            <mxPoint x="350" y="540" as="sourcePoint" />
            <mxPoint x="400" y="490" as="targetPoint" />
          </mxGeometry>
        </mxCell>
      </root>
    </mxGraphModel>
  </diagram>
</mxfile>
